<svg viewBox="216.18303571428572 216.20000000000002 1459.2354910714287 585.902" xmlns="http://www.w3.org/2000/svg"
     style="max-height: 500px" width="1459.2354910714287" height="585.902">
    <g stroke="#949697" fill="none" stroke-width="2">
        <path
            d="M751.3 583.2q1.07-3.04 3.42-5.51a2.43 2.43 0 0 0 .67-1.57l.18-4.01a3.26 3.25-59.4 0 0-.48-1.87q-1.21-1.96-.86-4.38a1 1 0 0 0-.58-1.06c-.99-.43-1.85-.01-3.17-.9q-3.04-2.03-7.26-1.87a2.03 2.01 55.7 0 1-.92-.18q-1.28-.58-1.81-.58-13.82-.15-26.83.03a1.15 1.15 0 0 1-1.17-1.15V454.81a.84.69 62.6 0 1 .07-.33l2.24-4.62a1.05 1.04-78.5 0 1 .89-.59c.96-.04 1.99.49 3.05.44q7.54-.34 12.04.07a1.77 1.74 32 0 0 1.04-.23l1.72-.99a1.07 1.05 42.1 0 1 .97-.04c3.58 1.72 8.07 1.24 13.5.81a1.9 1.86 54.1 0 1 .98.17c3.02 1.37 1.87 5.69 2.19 8.68a1.11 1.1-89.7 0 0 .95.97q.52.07.74.23a1.17 1.15 20.6 0 1 .49 1.05q-.75 8.23.1 14.03a1.15 1.14-24.5 0 1-.39 1.03q-1.49 1.24-1.43 2.65a2.11 2.06-63.9 0 0 .34 1.04c2.65 4.11 2.1 7.41 2.07 12.12a.87.85 18.6 0 0 .35.69l3.42 2.54a1.71 1.68 61.3 0 0 1.09.33l8.04-.37a.68.64-32.7 0 1 .32.06q2.94 1.32 4.32-2.23a1.1 1.06 54.3 0 0 .07-.48l-.09-1.38a2.01 1.99 61.7 0 1 .39-1.33l2.16-2.91a3.83 3.82-27 0 0 .74-2.26v-3.49a.7.61-34.2 0 1 .08-.31l2.06-4.01a1.39 1.37-42.4 0 0 .06-1.14l-.66-1.68a.95.87 35.3 0 1-.08-.37c-.03-6.76.45-12.26-.15-18.12-.29-2.9.42-6.39-.99-9.46a.9.9 0 0 1 .09-.89l.64-.86a1.82 1.81 57.9 0 0 .33-1.45q-.43-2.27-.25-4.13c.5-5.29-5.25-6.39-9.12-6.29a1.26 1.23-72.2 0 0-.95.5l-.81 1.09a.76.76 0 0 1-.9.26q-.52-.21-.7-.39c-2.14-2.05-8.44.93-10.84 2.23a1.58 1.58 0 0 1-2.12-.6l-1.74-3.02a1.25 1.24 73.4 0 0-1.12-.61l-14.21.69a1.11.9-32.4 0 1-.25-.03q-1.87-.52-3.23-.55-10.57-.28-34.99.1-4.52.07-6.29 0-18.71-.77-45.31.65a3.47 3.45 19.3 0 0-2.37 1.13q-1.23 1.37-2.85 1.56c-3 .37-4.84 1.97-3.79 4.88a1.36 1.36 0 0 1-.25 1.35q-1.46 1.66-2.11 6.11a1.57 1.5-74.3 0 0 .87 1.64q1.76.77 1.77 3.26 0 8.45-.72 21.32-.18 3.25-.76 6.35-1.06 5.71 1.98 12.46a1.11 1.09-1.7 0 0 .63.58l6.33 2.3a2.45 2.43-48.5 0 0 1.97-.13l5.4-2.81a1.8 1.75-3.7 0 0 .83-.92q.95-2.33 2.67-3.62a1.08 1.07 71.8 0 0 .43-.86v-3.43a1.82 1.78-37.1 0 1 .08-.53l1.76-5.9a1.05 1.04-55.6 0 0-.17-.93q-3.24-4.11-.57-8.6a2.04 2.01-34.8 0 0 .26-1.39q-.47-2.77.08-5.99c.18-1.11-.48-2.13-.6-2.89a1.41 1.37-31.9 0 1 .25-1.01l2.51-3.47a2.39 2.36-73.6 0 1 1.77-.98l3.37-.22a.86.84 15.8 0 0 .62-.34l.9-1.22a1.2 1.2 0 0 1 .96-.48h26.31a.83.82-90 0 1 .82.83v111.06a.58.57-87.7 0 1-.62.58l-10.44-.85a1.54 1.24-41.7 0 0-.41.02l-8.58 1.66a.7.7 0 0 1-.28 0c-2.46-.46-5.62-.41-8.18 1.2q-1.16.73-3.4 1.29a2.35 2.33-7.8 0 0-1.79 2.34q.09 2.57-1.49 3.97a1.2 1.19-28.4 0 0-.36 1.2c.79 2.95.1 5.97 1.41 9.17a2.04 2.04 0 0 0 1.21 1.14c1.27.43 2.2 1.1 3.19 2.12q.8.82 2.08.57c2.81-.56 4.47-1.16 7-.33q1 .33 2.86-.37a.78.77 77.4 0 1 1.04.66q.18 1.94 1.65 1.33.97-.4 5.77-1.05a1.96 1.93-30.8 0 1 1.38.34c3.31 2.35 5.52-.54 8.54-1.05q2.91-.5 4.64.89a2.51 2.5-38.4 0 0 2.66.3l2.44-1.19a1.14 1.12 32.6 0 1 .53-.11l17.93.82a1.33 1.28 29.4 0 0 .7-.18l.94-.53a1.79 1.78-50 0 1 1.52-.14l2.13.78a1.94 1.91-42.5 0 0 1.18.04q1.95-.55 4.02-.21a3.16 3.05-47.7 0 0 1.41-.09q3.72-1.13 6.96-.21a2.85 2.69-38.5 0 0 1.07.09l9.23-.95a1.89 1.87 6.4 0 0 1.57-1.24m413.26-49.8a.46.46 0 0 1 .51-.45q8.3.95 19.31.64c3.18-.08 5.64.59 8.46.27 4.15-.46 9.49-.1 14.01-.26q5.46-.18 7.68-.16 18.54.18 21.72.33 4.29.2 5.9-.05c2.03-.31 4.3.25 6.39.61a1.51 1.5 30.9 0 0 1.17-.29q.54-.42.7-.94a.75.74-80.8 0 1 .71-.52h3.14a1.55 1.55 0 0 1 1.13.49q1.3 1.41 2.01 1.52 2.81.43 6.44-.73a4.18 4.1-55.9 0 1 .94-.19q5.67-.38 6.07-6.61.42-6.7-.36-8.72v-.03l.05-5.49a1.59 1.57-70 0 0-.55-1.2q-1.43-1.23-1.83-2.05-3.71-7.62-7.46-14.99-2.55-5.02-6.89-8.87-6.39-5.69-8.71-6.59-2.83-1.11-6.67-3.75-3.77-2.6-10.23-5.09-1.95-.75-5.64-.19a.78.77-26.2 0 1-.65-.22l-2.18-2.18a1.37 1.33 69.9 0 0-.81-.39q-2.9-.31-9.42-1.48-1.16-.21-6.25.46a2.64 2.64 0 0 0-1.23.5l-1.24.94a1.43 1.4 30.5 0 1-1.06.26c-3.25-.48-6.19 1.25-9.46 1.42-2.98.16-5.81 1.95-8.86 3.16q-5.42 2.15-7.3 2.68a2.4 2.19-67.6 0 0-.66.31l-9.31 6.27a1.54 1.21-78.3 0 0-.19.16q-2.39 2.31-4.12 3.11a2.5 2.5 0 0 0-1.29 1.39c-.95 2.52-1.41 5.29-3.42 6.78q-2.7 2.02-3.78 5.81-1.25 4.36-2.62 6.81c-2.29 4.09-1.69 8.89-4.24 12.53a1.7 1.67 59.9 0 0-.3 1.16l.45 3.76a1.84 1.84 0 0 1-.24 1.14q-2.73 4.64.47 9.7a2.1 2.08 29.1 0 1 .32 1.11q.12 10.08 4.43 19.22c1.22 2.59 1.29 5.33 3.23 7.3 2.36 2.4 4.46 7.2 6.57 8.71q3.73 2.66 6.16 4.91 2.5 2.31 6.37 4.59 5.73 3.38 12.5 6.55a5.43 5.22-25.1 0 0 1.15.39q3.42.75 7.46 2.4a1.57 1.57 0 0 0 2.01-.77l.62-1.28a1.09 1.08 39.8 0 1 1.85-.16q.9 1.23 2.76 2.49a.72.72 0 0 0 .87-.04q1.03-.87 1.6-.94 9.12-1.17 22.75-.45a1.09 1.04-59.1 0 0 .65-.18l6.43-4.15a.9.9 0 0 1 .99.01q1.24.8 2 1.6a1.75 1.55 49.7 0 0 2.16.31c2.88-2.11 6.04-1.83 9.49-2.4a1.52 1.49-73.6 0 0 .86-.48q1.2-1.38 4.1-1.68c2.38-.25 2.62-2.24 3.98-3.74a3.05 2.99-79.7 0 1 1.09-.77l3.52-1.47a2.29 2.13-73.6 0 0 .27-.16q1.13-.9 1.71-3.99a1.7 1.69-85.4 0 1 1.63-1.39c2.98-.08 6.87-.73 5.05-4.69q-.56-1.24.76-2.41a.93.92 57.6 0 0 .23-1.05l-1.42-3.29a1.62 1.62 0 0 0-1.3-.97l-2.44-.3a1.34 1.29-14.2 0 1-.89-.51q-1-1.34-2.1-1.98a1.24 1.22 56.3 0 0-.77-.16l-6.62.79a1.57 1.43-61.7 0 0-.57.2c-2.14 1.36-3.56 2.02-4.26 3-.67.93-1.09 1.33-2.41 1.17-3.54-.41-8.43 3.2-10.36 4.66a3.34 3.3-66.7 0 1-1.56.63q-2.87.37-4.92 2.69a1.28 1.28 0 0 1-1.51.3l-.87-.43a1.78 1.76-35.3 0 0-.97-.16l-16.01 1.91a3.43 3.28 46.3 0 1-1.12-.05l-3.29-.66a1.9 1.88-52.4 0 0-1.19.16l-3.27 1.67a2.09 2.07-58.1 0 1-.93.22q-.35-.04-1.17-.46c-1.97-1.02-4.27-1.29-6.38-1.31-1.73-.02-2.58-1.04-4.3-1.22q-1.54-.16-3.16-1.08-6.32-3.61-7.58-4.63-2.26-1.85-5.01-4.62c-1.95-1.96-2.93-5.82-5.27-8.2-1.01-1.03-1.62-2.22-2.75-3.95a1.35 1.31-61.2 0 1-.22-.8l.2-4.41a2.16 2.11-56.7 0 0-.19-.97q-1.27-2.7-1.25-5.4m-294.63-2.99q-.47-1.32-.71-2.57a3.15 2.74 31.5 0 0-.18-.57l-7.6-17.65a2.45 2.39-83.8 0 0-.73-.93q-.3-.2-.75-.28a2.1 2.09 83.1 0 1-1.53-1.21q-.47-1.09-1.47-2.64c-1.45-2.25-1.54-5.46.73-7.34a1.04 1.03 58.7 0 0 .29-1.2l-1.19-2.75a1.27 1.27 0 0 1 .93-1.75l8.64-1.67a1.24 1.21-76.3 0 0 .72-.45q.96-1.24 1.66-3.6a1.1 1.08-55.9 0 0-.18-.98l-2.22-2.82a2.81 2.79-63 0 1-.6-1.87l.11-2.42a1.33 1.31 23.1 0 0-.42-1.03q-1.2-1.07-1.54-2.94a.89.88-1.8 0 0-.76-.71l-3.31-.4a1.21 1.2 26.9 0 0-.97.31q-.15.14-.27.23a1 .99-47.6 0 1-1.13.06q-1.15-.71-2.47-.6a1.45 1.43-17 0 1-1.36-.71l-.28-.48a1.09 1.09 0 0 0-1.23-.51q-2.53.68-6.28.43-1.14-.08-3.29-1.35-2.4-1.41-5.59-.55-5.23 1.4-8.21 1.79-1.42.19-3.24.01-5.15-.52-5.93-.48a1.79 1.75 23.6 0 0-1.01.38l-1.47 1.19a2.51 2.47-66.8 0 1-1.34.55l-4.24.43a3.37 3.05 29.4 0 0-.62.14l-8.53 3.01a2.67 2.65-4.9 0 0-1.75 2.07q-.45 2.59-1.43 5.45a2.27 2.26-68.6 0 0 1.21 2.79c2.47 1.12 1.95 3.22 3.42 4.42q1.37 1.11 2.83.84 4.59-.87 6.96.37a1.93 1.92 45.2 0 0 1.8.01q2.1-1.09 3.72.62a2.5 2.47-20.2 0 0 1.67.76l10.82.49a2.04 2-14.9 0 1 1.6.91q5.35 8.1 8.09 16.03a6.72 6.64 19.4 0 0 .69 1.42l2.97 4.62a4.09 4.04 22.4 0 1 .54 1.27q.65 2.8 1.71 4.19a1.21 1.17 28.4 0 1 .23.73l-.2 4.21a.97.97 0 0 0 .96 1.01q2.08.04 3.06 2.06.6 1.22 4.87 10.72c.9 2.01 2.33 3.6 3.24 5.06a1.65 1.64-60.2 0 1 .25.94l-.08 1.75a1.17 1.13-67 0 0 .34.89c2.4 2.39 2.72 4.02 3.71 7.37a3.85 3.79 18 0 0 .68 1.31l1.83 2.3a2.71 2.54 16.5 0 1 .3.51l5.8 13.72a2.86 2.84 85.6 0 0 1.91 1.65q4.25 1.1 6.53 5.23a1.42 1.4 38.8 0 1 .12 1.02c-2.26 8.42-6.28 15.33-11.17 24.21a.96.72-18.6 0 1-.13.19l-4.24 5.2a.91.91 0 0 1-1.4.02l-2.08-2.43a2.35 2.35 0 0 0-2.72-.63l-3.82 1.64a.91.91 0 0 1-1.2-.48l-2.25-5.22a1.29 1.28 88.3 0 0-.74-.7c-3.43-1.27-5.89-2.36-9.42-.22a2.96 2.95 28.4 0 1-1.48.44c-4.68.16-6.04 2.37-8.96 6.04a4.81 4.44-18.3 0 0-.72 1.3c-1.43 3.89-2.08 6.3-4.08 8.28a1.7 1.68 69.5 0 0-.49 1.09q-.29 4.77.13 5.65 1.19 2.56 1.63 4.52a1.8 1.8 0 0 0 .63 1q3.71 2.9 7.24 6.04.86.75 2.42-.72a1.46 1.45-41.3 0 1 2.11.13q2.73 3.23 9.99 2.67a2.06 2.05-82.3 0 0 1.78-1.36l.44-1.19a.62.62 0 0 1 .85-.35l1.39.68a.4.34 49.7 0 0 .12.02q.85 0 1.51-1.18a.55.55 0 0 1 .77-.2q1.39.83 2.09.76c1.22-.12 1.6-1.36 2.56-1.93a1.62 1.59-52.5 0 1 1.2-.17q3.03.76 4.73-1.83a2.06 1.79-56.6 0 1 2.65-.74q1.79 1.18 3.58 1.65a1.53 1.49 38.4 0 0 1.05-.11q3.53-1.75 4.03-5.34a.93.93 0 0 1 1.24-.74c1.92.69 5.95 1.1 7.11-.8.79-1.29 1.52-2.76.9-4.33a1.26 1.25-1 0 0-.77-.74q-2.05-.69-3.52-2.1a2.19 2.18-49 0 1-.2-2.93l2.49-3.17a.67.53 83.7 0 0 .07-.11q2.08-3.93 5.29-8.92.55-.86.7-3.47a.22.21 61.8 0 1 .03-.11l20.81-43.03a5.49 5.19-26.7 0 0 .36-.99q.69-2.83 2.04-5.32c2.87-5.33 5.69-13.1 7.35-16.43q2.04-4.11 4.68-10.89 2.13-5.49 6.4-14.79c1.32-2.89 2-6.1 2.69-8.28a2.67 2.62-9.1 0 1 1.02-1.38l1.44-1.02a1.76 1.75 82.6 0 0 .65-.85l1.6-4.4a.78.77-78 0 1 .78-.51q1.84.11 8.33-.42 1.65-.13 2.91-1.19a1.06 1.06 0 0 1 .94-.2q.02 0 .71.41c1.77 1.04 2.94 1.11 4.83-.52q2.21-1.93.61-3.86a.87.87 0 0 1 .3-1.35q1.39-.62 1.97-1.3a1.2 1.19 63.8 0 0 .3-.89q-.17-1.99-.11-6.55.02-1.18-2.14-4.35a1.64 1.61 85.3 0 0-.65-.56l-3.5-1.7a1.23 1.19-32.8 0 0-.55-.11l-11.64.65a.7.7 0 0 1-.61-.27c-2.61-3.23-5.65-.4-8.5-.06a1.04 1.03-23.4 0 1-.92-.36l-.63-.77a1.03 1.02-24 0 0-.95-.36q-.87.12-5.86.53-2.54.21-5.86 0c-4.3-.28-10.45-.63-15.47 1.76q-2.25 1.07-2.56 1.79a3 3 0 0 0-.24.96c-.14 1.77-.3 3.06-1.28 4.29q-.53.65-.56 1.08a1.12 1.12 0 0 0 .28.84q.55.62.64.98a.88.88 0 0 1-.33.92l-2.71 2.01a1.26 1.25 54.8 0 0-.29 1.7q1.65 2.43 5.01 3.62a.95.76 51.4 0 0 .22.05l10.56.32a.96.95-2.4 0 1 .92.83q.6 4.51 4.65 2.92a1.25 1.25 0 0 1 1.3 2.08l-1.03.96a1.31 1.3-11 0 0-.34.5c-1.6 4.14-3.11 8.68-4.66 12.11q-7.82 17.28-7.99 17.85a1.86 1.83-1.4 0 1-1.17 1.21l-1.35.46a1.27 1.25-.2 0 0-.79.78q-.02.08-9.78 23.49-1.41 3.37-3.6 5.79a.94.94 0 0 1-1.59-.33q-.26-.76-.96-1.73a.72.71-19.2 0 0-.64-.3l-1.41.09a.96.95-11.6 0 1-.97-.63l-1.33-3.79a2.65 2.57-78.9 0 0-.65-1q-3.37-3.14-3.12-8.37a3.49 3.48-62.6 0 0-.74-2.34q-4.46-5.75-6.65-11.15a.83.81-2.8 0 0-.54-.48q-.39-.11-.94.14a.67.61 67.7 0 1-.86-.41m108.13-52.87.91.11a.67.66 5.5 0 1 .58.7c-.04.72-.53 1.32-.46 2.19q.46 5.22.47 7.46a1.17 1.16-65.7 0 0 .29.77l3.27 3.86a1.87 1.77 77.9 0 0 .8.55c3.05 1.07 4.8-1.89 6.65-2.89a1.06 1.04-46.4 0 1 .99-.03l5.02 2.43a.75.74 35.1 0 0 .85-.14q3.42-3.31 7.44-.44a.9.89 28.2 0 1 .32 1.03l-.69 1.89a1.24 1.19-43.9 0 0-.03.76l.71 2.65a4.26 4.2-52.8 0 1 .14 1.08v116.23a.99.99 0 0 1-1.15.98q-6.11-.98-11.8-.42a1.32 1.3 9.2 0 0-1.08.77q-.37.81-.77 1.1a1.87 1.83-65.4 0 1-.91.35q-3.5.36-4.49 1.35-3.49 3.51-4.53 4.44a1.57 1.57 0 0 0-.5.94q-1.08 7.5 4.56 11.16a1.45 1.43 55.9 0 0 1.06.21l2.32-.45a1.83 1.8 52.9 0 1 1.15.17c2.3 1.18 4.75.7 7.42.64q3.45-.09 5.09-.26a1.57 1.55-74.2 0 0 1.08-.61l.27-.37a.58.57 48.4 0 1 .96.06l.22.37a1.08 1.07-15.7 0 0 .89.5q16.52.39 26.4.06c6.58-.21 10.19.26 17.99.11q1.88-.04 3.59-1a1.14 1.14 0 0 0 .55-.69c.5-1.74.19-3.53 1.17-5.39q.79-1.53 1.17-2.7a1.35 1.33 32.4 0 0-.31-1.33q-1.24-1.3-1.84-2.9a1.72 1.7 2.9 0 0-.86-.94q-1.96-.92-2.34-1.49-3.74-5.65-11.07-4.24-.58.11-2-.68c-2.43-1.34-5.76-1.56-8.95-2.07q-.45-.07-3.63-1.46a.77.75 12 0 1-.46-.69v-35.59a.58.57 5.8 0 1 .69-.56l4.4.93a1.83 1.83 0 0 1 .93.5l4.74 4.74a.54.54 0 0 0 .6.11c3.08-1.4 6.13.66 8.55 2.85a2.32 2.29-18.8 0 0 1.2.58q.81.13 1.87-.09c2.38-.49 5.9.81 8.36 1.76a5.51 5.41-30.6 0 0 1.26.31l11.5 1.4a7.83 7.75 42.4 0 0 2.48-.1q4.9-1.02 10.86-2.28c2.44-.52 5-2 7.25-2.25a1.89 1.82 20.3 0 0 .98-.43c3.1-2.65 7.2-3.25 9.04-5.21q2.8-2.98 4.93-4.77a2.52 2.44 83.1 0 0 .69-.91l1.7-3.9a3.17 3.11 80.5 0 1 .74-1.06l4.06-3.85a.49.43 86.4 0 0 .07-.09q3.91-6.46 5.23-8.02a1.57 1.54-27.6 0 0 .36-1.12q-.07-.89.69-4.63c.38-1.89-.11-3.82.68-5.42 1.07-2.14 1.53-5.38 2.01-6.95a11.76 11.73-38.3 0 0 .5-4.23l-1.08-16.48a5.15 5.12 31.8 0 0-.38-1.6l-6.17-14.63a1.27.78 37.6 0 0-.07-.14l-9.6-15.68a1.29 1.28 56.9 0 1 .36-1.73q1.91-1.34 1.52-3.31a1.2 1.19 13.1 0 0-.44-.7l-3.16-2.34a1.12 1.11 54.6 0 0-.98-.17q-2.33.72-4.21 2.9a1.04 1.04 0 0 1-1.59-.01l-1.94-2.31a1.44 1.37-8.4 0 0-.57-.4l-9.3-3.38a.9.79-14.9 0 1-.22-.11l-3.36-2.2a2.24 2.17-28.7 0 0-1.31-.36l-8.71.36a1.28 1.01-28.6 0 1-.41-.07l-1.32-.48a1.14 1.13-45.4 0 0-.76.01c-2.08.81-4.59.37-6.8 1.04-3.56 1.08-9.45.71-12.07 4.57a1.1 1.1 0 0 1-1.03.48q-3-.32-6.91.69a2.1 2.05-76.2 0 0-1.06.66q-2.95 3.47-6.88 3.28a1.97 1.96-62.2 0 0-1.31.41l-5.01 3.8a1.06 1.05-20.5 0 1-1.69-.77l-.76-11.64a.66.65 8.6 0 0-.42-.56q-2.54-.93-3.49-.56-2.61.99-4.04.81-6.12-.8-11.68.53a.9.9 0 0 1-.85-.24l-.43-.43a1.04 1.03-24.2 0 0-.83-.31l-8 .52a.9.86 52 0 1-.41-.06l-1.16-.42a1.43 1.42 43.7 0 0-1.03.02c-3.3 1.34-5.93.47-9.18 2.96a1.56 1.56 0 0 1-.93.33c-.93.03-1.98-.47-2.77.12q-.44.33-.82 1.48a.52.51-77.9 0 0 .43.67"/>
        <path
            d="m1165.97 513.05 2.82 2.08a1.39 1.39 0 0 0 1.49.11q2.1-1.11 3.67.08c1.51 1.14 3.27.42 4.72.15a4.1 3.98 39.5 0 1 .85-.07q23.47.29 49.23.17 1.98-.01 9.31-.7a5.98 5.97-41.3 0 1 1.88.12c1.35.3 2.26.89 3.74.61 4.39-.86 3.99-6.86 2.06-9.54-.91-1.25-3.37-2.2-4.72-4.02q-1.36-1.83-3.45-2.73a3.64 3.56 77 0 1-1.03-.66q-3.64-3.32-4.79-3.93-6.1-3.22-10.94-6.7c-2.04-1.46-3.45-1.49-5.7-.51a2.15 2.07 36.9 0 1-1.22.15q-2.97-.5-5.22.27a1.36 1.36 0 0 1-1.26-.19l-1.3-.96a1.16 1.15 56.4 0 0-.97-.2q-1.96.45-7.37.1-1.49-.09-4.63 2.25a2.02 1.97 21.4 0 1-.85.36q-7.05 1.23-10.83 3.71-4.2 2.75-7.41 4.59a2.01 1.95.9 0 0-.68.64q-1.45 2.26-2.04 5.31a.86.85 5.3 0 1-.84.69h-.98a1.21 1.19-79.8 0 0-1.12.79l-2.64 7.28a.66.65-61.6 0 0 .22.75m-66.52 4.07q-1.23-2.76-2.14-6.17-.45-1.71-3.23-6.19a4.92 4.87 23.9 0 1-.63-1.61l-.44-2.27a.95.94-11.8 0 0-1.14-.74c-2.13.48-4.54-2.74-5.86-4.07a1.97 1.96 62.1 0 0-1.77-.55l-.92.18a2.68 2.64 54.4 0 1-1.85-.32q-7.32-4.33-15.97-5.32-3.67-.42-6.15 1.71a1.1 1.09-48.5 0 1-1.32.08c-6.2-4.18-6.02 2.29-11.18 1.28a2.17 2.16 26 0 0-2.05.7q-4.1 4.64-8.24 6.93a8.03 7.96-86 0 0-2.6 2.28l-5.89 7.95a3.85 3.59-67.5 0 0-.29.46c-1.77 3.48-2.57 8.3-4.24 12.61a2.09 1.99-35.6 0 0-.14.74v25.16a1.78 1.78 0 0 0 2.67 1.54l1.98-1.15a1.88 1.86 59.9 0 1 2.55.69l5.57 9.64a1.24 1.24 0 0 0 .96.62q3.91.39 6.37 3.02 1.5 1.6 2.19 1.86a2.87 2.8 52.6 0 0 1.17.17q3.15-.23 5.17 1.97a2.83 2.82 71.3 0 0 1.83.91q6.34.57 13.76.47c3.8-.05 7.13-1.14 10.1-2.75q3.17-1.72 3.77-1.93a1.48 1.45-42.8 0 1 1.06.03c2.27.96 3.33-.68 4.75-2.1q5.67-5.71 6.55-7.14 1.35-2.18 5.92-15.87a3.2 2.99-19.9 0 1 .44-.86q2.3-3.23 2.27-8.09-.06-7.47-1.25-12.21a.84.83 11.8 0 0-.31-.47l-1.25-.93a.73.67-87.6 0 1-.22-.26"/>
    </g>
    <path
        d="M1937 0v1081H0V0zM751.3 583.2q1.07-3.04 3.42-5.51a2.43 2.43 0 0 0 .67-1.57l.18-4.01a3.26 3.25-59.4 0 0-.48-1.87q-1.21-1.96-.86-4.38a1 1 0 0 0-.58-1.06c-.99-.43-1.85-.01-3.17-.9q-3.04-2.03-7.26-1.87a2.03 2.01 55.7 0 1-.92-.18q-1.28-.58-1.81-.58-13.82-.15-26.83.03a1.15 1.15 0 0 1-1.17-1.15V454.81a.84.69 62.6 0 1 .07-.33l2.24-4.62a1.05 1.04-78.5 0 1 .89-.59c.96-.04 1.99.49 3.05.44q7.54-.34 12.04.07a1.77 1.74 32 0 0 1.04-.23l1.72-.99a1.07 1.05 42.1 0 1 .97-.04c3.58 1.72 8.07 1.24 13.5.81a1.9 1.86 54.1 0 1 .98.17c3.02 1.37 1.87 5.69 2.19 8.68a1.11 1.1-89.7 0 0 .95.97q.52.07.74.23a1.17 1.15 20.6 0 1 .49 1.05q-.75 8.23.1 14.03a1.15 1.14-24.5 0 1-.39 1.03q-1.49 1.24-1.43 2.65a2.11 2.06-63.9 0 0 .34 1.04c2.65 4.11 2.1 7.41 2.07 12.12a.87.85 18.6 0 0 .35.69l3.42 2.54a1.71 1.68 61.3 0 0 1.09.33l8.04-.37a.68.64-32.7 0 1 .32.06q2.94 1.32 4.32-2.23a1.1 1.06 54.3 0 0 .07-.48l-.09-1.38a2.01 1.99 61.7 0 1 .39-1.33l2.16-2.91a3.83 3.82-27 0 0 .74-2.26v-3.49a.7.61-34.2 0 1 .08-.31l2.06-4.01a1.39 1.37-42.4 0 0 .06-1.14l-.66-1.68a.95.87 35.3 0 1-.08-.37c-.03-6.76.45-12.26-.15-18.12-.29-2.9.42-6.39-.99-9.46a.9.9 0 0 1 .09-.89l.64-.86a1.82 1.81 57.9 0 0 .33-1.45q-.43-2.27-.25-4.13c.5-5.29-5.25-6.39-9.12-6.29a1.26 1.23-72.2 0 0-.95.5l-.81 1.09a.76.76 0 0 1-.9.26q-.52-.21-.7-.39c-2.14-2.05-8.44.93-10.84 2.23a1.58 1.58 0 0 1-2.12-.6l-1.74-3.02a1.25 1.24 73.4 0 0-1.12-.61l-14.21.69a1.11.9-32.4 0 1-.25-.03q-1.87-.52-3.23-.55-10.57-.28-34.99.1-4.52.07-6.29 0-18.71-.77-45.31.65a3.47 3.45 19.3 0 0-2.37 1.13q-1.23 1.37-2.85 1.56c-3 .37-4.84 1.97-3.79 4.88a1.36 1.36 0 0 1-.25 1.35q-1.46 1.66-2.11 6.11a1.57 1.5-74.3 0 0 .87 1.64q1.76.77 1.77 3.26 0 8.45-.72 21.32-.18 3.25-.76 6.35-1.06 5.71 1.98 12.46a1.11 1.09-1.7 0 0 .63.58l6.33 2.3a2.45 2.43-48.5 0 0 1.97-.13l5.4-2.81a1.8 1.75-3.7 0 0 .83-.92q.95-2.33 2.67-3.62a1.08 1.07 71.8 0 0 .43-.86v-3.43a1.82 1.78-37.1 0 1 .08-.53l1.76-5.9a1.05 1.04-55.6 0 0-.17-.93q-3.24-4.11-.57-8.6a2.04 2.01-34.8 0 0 .26-1.39q-.47-2.77.08-5.99c.18-1.11-.48-2.13-.6-2.89a1.41 1.37-31.9 0 1 .25-1.01l2.51-3.47a2.39 2.36-73.6 0 1 1.77-.98l3.37-.22a.86.84 15.8 0 0 .62-.34l.9-1.22a1.2 1.2 0 0 1 .96-.48h26.31a.83.82-90 0 1 .82.83v111.06a.58.57-87.7 0 1-.62.58l-10.44-.85a1.54 1.24-41.7 0 0-.41.02l-8.58 1.66a.7.7 0 0 1-.28 0c-2.46-.46-5.62-.41-8.18 1.2q-1.16.73-3.4 1.29a2.35 2.33-7.8 0 0-1.79 2.34q.09 2.57-1.49 3.97a1.2 1.19-28.4 0 0-.36 1.2c.79 2.95.1 5.97 1.41 9.17a2.04 2.04 0 0 0 1.21 1.14c1.27.43 2.2 1.1 3.19 2.12q.8.82 2.08.57c2.81-.56 4.47-1.16 7-.33q1 .33 2.86-.37a.78.77 77.4 0 1 1.04.66q.18 1.94 1.65 1.33.97-.4 5.77-1.05a1.96 1.93-30.8 0 1 1.38.34c3.31 2.35 5.52-.54 8.54-1.05q2.91-.5 4.64.89a2.51 2.5-38.4 0 0 2.66.3l2.44-1.19a1.14 1.12 32.6 0 1 .53-.11l17.93.82a1.33 1.28 29.4 0 0 .7-.18l.94-.53a1.79 1.78-50 0 1 1.52-.14l2.13.78a1.94 1.91-42.5 0 0 1.18.04q1.95-.55 4.02-.21a3.16 3.05-47.7 0 0 1.41-.09q3.72-1.13 6.96-.21a2.85 2.69-38.5 0 0 1.07.09l9.23-.95a1.89 1.87 6.4 0 0 1.57-1.24m413.26-49.8a.46.46 0 0 1 .51-.45q8.3.95 19.31.64c3.18-.08 5.64.59 8.46.27 4.15-.46 9.49-.1 14.01-.26q5.46-.18 7.68-.16 18.54.18 21.72.33 4.29.2 5.9-.05c2.03-.31 4.3.25 6.39.61a1.51 1.5 30.9 0 0 1.17-.29q.54-.42.7-.94a.75.74-80.8 0 1 .71-.52h3.14a1.55 1.55 0 0 1 1.13.49q1.3 1.41 2.01 1.52 2.81.43 6.44-.73a4.18 4.1-55.9 0 1 .94-.19q5.67-.38 6.07-6.61.42-6.7-.36-8.72v-.03l.05-5.49a1.59 1.57-70 0 0-.55-1.2q-1.43-1.23-1.83-2.05-3.71-7.62-7.46-14.99-2.55-5.02-6.89-8.87-6.39-5.69-8.71-6.59-2.83-1.11-6.67-3.75-3.77-2.6-10.23-5.09-1.95-.75-5.64-.19a.78.77-26.2 0 1-.65-.22l-2.18-2.18a1.37 1.33 69.9 0 0-.81-.39q-2.9-.31-9.42-1.48-1.16-.21-6.25.46a2.64 2.64 0 0 0-1.23.5l-1.24.94a1.43 1.4 30.5 0 1-1.06.26c-3.25-.48-6.19 1.25-9.46 1.42-2.98.16-5.81 1.95-8.86 3.16q-5.42 2.15-7.3 2.68a2.4 2.19-67.6 0 0-.66.31l-9.31 6.27a1.54 1.21-78.3 0 0-.19.16q-2.39 2.31-4.12 3.11a2.5 2.5 0 0 0-1.29 1.39c-.95 2.52-1.41 5.29-3.42 6.78q-2.7 2.02-3.78 5.81-1.25 4.36-2.62 6.81c-2.29 4.09-1.69 8.89-4.24 12.53a1.7 1.67 59.9 0 0-.3 1.16l.45 3.76a1.84 1.84 0 0 1-.24 1.14q-2.73 4.64.47 9.7a2.1 2.08 29.1 0 1 .32 1.11q.12 10.08 4.43 19.22c1.22 2.59 1.29 5.33 3.23 7.3 2.36 2.4 4.46 7.2 6.57 8.71q3.73 2.66 6.16 4.91 2.5 2.31 6.37 4.59 5.73 3.38 12.5 6.55a5.43 5.22-25.1 0 0 1.15.39q3.42.75 7.46 2.4a1.57 1.57 0 0 0 2.01-.77l.62-1.28a1.09 1.08 39.8 0 1 1.85-.16q.9 1.23 2.76 2.49a.72.72 0 0 0 .87-.04q1.03-.87 1.6-.94 9.12-1.17 22.75-.45a1.09 1.04-59.1 0 0 .65-.18l6.43-4.15a.9.9 0 0 1 .99.01q1.24.8 2 1.6a1.75 1.55 49.7 0 0 2.16.31c2.88-2.11 6.04-1.83 9.49-2.4a1.52 1.49-73.6 0 0 .86-.48q1.2-1.38 4.1-1.68c2.38-.25 2.62-2.24 3.98-3.74a3.05 2.99-79.7 0 1 1.09-.77l3.52-1.47a2.29 2.13-73.6 0 0 .27-.16q1.13-.9 1.71-3.99a1.7 1.69-85.4 0 1 1.63-1.39c2.98-.08 6.87-.73 5.05-4.69q-.56-1.24.76-2.41a.93.92 57.6 0 0 .23-1.05l-1.42-3.29a1.62 1.62 0 0 0-1.3-.97l-2.44-.3a1.34 1.29-14.2 0 1-.89-.51q-1-1.34-2.1-1.98a1.24 1.22 56.3 0 0-.77-.16l-6.62.79a1.57 1.43-61.7 0 0-.57.2c-2.14 1.36-3.56 2.02-4.26 3-.67.93-1.09 1.33-2.41 1.17-3.54-.41-8.43 3.2-10.36 4.66a3.34 3.3-66.7 0 1-1.56.63q-2.87.37-4.92 2.69a1.28 1.28 0 0 1-1.51.3l-.87-.43a1.78 1.76-35.3 0 0-.97-.16l-16.01 1.91a3.43 3.28 46.3 0 1-1.12-.05l-3.29-.66a1.9 1.88-52.4 0 0-1.19.16l-3.27 1.67a2.09 2.07-58.1 0 1-.93.22q-.35-.04-1.17-.46c-1.97-1.02-4.27-1.29-6.38-1.31-1.73-.02-2.58-1.04-4.3-1.22q-1.54-.16-3.16-1.08-6.32-3.61-7.58-4.63-2.26-1.85-5.01-4.62c-1.95-1.96-2.93-5.82-5.27-8.2-1.01-1.03-1.62-2.22-2.75-3.95a1.35 1.31-61.2 0 1-.22-.8l.2-4.41a2.16 2.11-56.7 0 0-.19-.97q-1.27-2.7-1.25-5.4m-294.63-2.99q-.47-1.32-.71-2.57a3.15 2.74 31.5 0 0-.18-.57l-7.6-17.65a2.45 2.39-83.8 0 0-.73-.93q-.3-.2-.75-.28a2.1 2.09 83.1 0 1-1.53-1.21q-.47-1.09-1.47-2.64c-1.45-2.25-1.54-5.46.73-7.34a1.04 1.03 58.7 0 0 .29-1.2l-1.19-2.75a1.27 1.27 0 0 1 .93-1.75l8.64-1.67a1.24 1.21-76.3 0 0 .72-.45q.96-1.24 1.66-3.6a1.1 1.08-55.9 0 0-.18-.98l-2.22-2.82a2.81 2.79-63 0 1-.6-1.87l.11-2.42a1.33 1.31 23.1 0 0-.42-1.03q-1.2-1.07-1.54-2.94a.89.88-1.8 0 0-.76-.71l-3.31-.4a1.21 1.2 26.9 0 0-.97.31q-.15.14-.27.23a1 .99-47.6 0 1-1.13.06q-1.15-.71-2.47-.6a1.45 1.43-17 0 1-1.36-.71l-.28-.48a1.09 1.09 0 0 0-1.23-.51q-2.53.68-6.28.43-1.14-.08-3.29-1.35-2.4-1.41-5.59-.55-5.23 1.4-8.21 1.79-1.42.19-3.24.01-5.15-.52-5.93-.48a1.79 1.75 23.6 0 0-1.01.38l-1.47 1.19a2.51 2.47-66.8 0 1-1.34.55l-4.24.43a3.37 3.05 29.4 0 0-.62.14l-8.53 3.01a2.67 2.65-4.9 0 0-1.75 2.07q-.45 2.59-1.43 5.45a2.27 2.26-68.6 0 0 1.21 2.79c2.47 1.12 1.95 3.22 3.42 4.42q1.37 1.11 2.83.84 4.59-.87 6.96.37a1.93 1.92 45.2 0 0 1.8.01q2.1-1.09 3.72.62a2.5 2.47-20.2 0 0 1.67.76l10.82.49a2.04 2-14.9 0 1 1.6.91q5.35 8.1 8.09 16.03a6.72 6.64 19.4 0 0 .69 1.42l2.97 4.62a4.09 4.04 22.4 0 1 .54 1.27q.65 2.8 1.71 4.19a1.21 1.17 28.4 0 1 .23.73l-.2 4.21a.97.97 0 0 0 .96 1.01q2.08.04 3.06 2.06.6 1.22 4.87 10.72c.9 2.01 2.33 3.6 3.24 5.06a1.65 1.64-60.2 0 1 .25.94l-.08 1.75a1.17 1.13-67 0 0 .34.89c2.4 2.39 2.72 4.02 3.71 7.37a3.85 3.79 18 0 0 .68 1.31l1.83 2.3a2.71 2.54 16.5 0 1 .3.51l5.8 13.72a2.86 2.84 85.6 0 0 1.91 1.65q4.25 1.1 6.53 5.23a1.42 1.4 38.8 0 1 .12 1.02c-2.26 8.42-6.28 15.33-11.17 24.21a.96.72-18.6 0 1-.13.19l-4.24 5.2a.91.91 0 0 1-1.4.02l-2.08-2.43a2.35 2.35 0 0 0-2.72-.63l-3.82 1.64a.91.91 0 0 1-1.2-.48l-2.25-5.22a1.29 1.28 88.3 0 0-.74-.7c-3.43-1.27-5.89-2.36-9.42-.22a2.96 2.95 28.4 0 1-1.48.44c-4.68.16-6.04 2.37-8.96 6.04a4.81 4.44-18.3 0 0-.72 1.3c-1.43 3.89-2.08 6.3-4.08 8.28a1.7 1.68 69.5 0 0-.49 1.09q-.29 4.77.13 5.65 1.19 2.56 1.63 4.52a1.8 1.8 0 0 0 .63 1q3.71 2.9 7.24 6.04.86.75 2.42-.72a1.46 1.45-41.3 0 1 2.11.13q2.73 3.23 9.99 2.67a2.06 2.05-82.3 0 0 1.78-1.36l.44-1.19a.62.62 0 0 1 .85-.35l1.39.68a.4.34 49.7 0 0 .12.02q.85 0 1.51-1.18a.55.55 0 0 1 .77-.2q1.39.83 2.09.76c1.22-.12 1.6-1.36 2.56-1.93a1.62 1.59-52.5 0 1 1.2-.17q3.03.76 4.73-1.83a2.06 1.79-56.6 0 1 2.65-.74q1.79 1.18 3.58 1.65a1.53 1.49 38.4 0 0 1.05-.11q3.53-1.75 4.03-5.34a.93.93 0 0 1 1.24-.74c1.92.69 5.95 1.1 7.11-.8.79-1.29 1.52-2.76.9-4.33a1.26 1.25-1 0 0-.77-.74q-2.05-.69-3.52-2.1a2.19 2.18-49 0 1-.2-2.93l2.49-3.17a.67.53 83.7 0 0 .07-.11q2.08-3.93 5.29-8.92.55-.86.7-3.47a.22.21 61.8 0 1 .03-.11l20.81-43.03a5.49 5.19-26.7 0 0 .36-.99q.69-2.83 2.04-5.32c2.87-5.33 5.69-13.1 7.35-16.43q2.04-4.11 4.68-10.89 2.13-5.49 6.4-14.79c1.32-2.89 2-6.1 2.69-8.28a2.67 2.62-9.1 0 1 1.02-1.38l1.44-1.02a1.76 1.75 82.6 0 0 .65-.85l1.6-4.4a.78.77-78 0 1 .78-.51q1.84.11 8.33-.42 1.65-.13 2.91-1.19a1.06 1.06 0 0 1 .94-.2q.02 0 .71.41c1.77 1.04 2.94 1.11 4.83-.52q2.21-1.93.61-3.86a.87.87 0 0 1 .3-1.35q1.39-.62 1.97-1.3a1.2 1.19 63.8 0 0 .3-.89q-.17-1.99-.11-6.55.02-1.18-2.14-4.35a1.64 1.61 85.3 0 0-.65-.56l-3.5-1.7a1.23 1.19-32.8 0 0-.55-.11l-11.64.65a.7.7 0 0 1-.61-.27c-2.61-3.23-5.65-.4-8.5-.06a1.04 1.03-23.4 0 1-.92-.36l-.63-.77a1.03 1.02-24 0 0-.95-.36q-.87.12-5.86.53-2.54.21-5.86 0c-4.3-.28-10.45-.63-15.47 1.76q-2.25 1.07-2.56 1.79a3 3 0 0 0-.24.96c-.14 1.77-.3 3.06-1.28 4.29q-.53.65-.56 1.08a1.12 1.12 0 0 0 .28.84q.55.62.64.98a.88.88 0 0 1-.33.92l-2.71 2.01a1.26 1.25 54.8 0 0-.29 1.7q1.65 2.43 5.01 3.62a.95.76 51.4 0 0 .22.05l10.56.32a.96.95-2.4 0 1 .92.83q.6 4.51 4.65 2.92a1.25 1.25 0 0 1 1.3 2.08l-1.03.96a1.31 1.3-11 0 0-.34.5c-1.6 4.14-3.11 8.68-4.66 12.11q-7.82 17.28-7.99 17.85a1.86 1.83-1.4 0 1-1.17 1.21l-1.35.46a1.27 1.25-.2 0 0-.79.78q-.02.08-9.78 23.49-1.41 3.37-3.6 5.79a.94.94 0 0 1-1.59-.33q-.26-.76-.96-1.73a.72.71-19.2 0 0-.64-.3l-1.41.09a.96.95-11.6 0 1-.97-.63l-1.33-3.79a2.65 2.57-78.9 0 0-.65-1q-3.37-3.14-3.12-8.37a3.49 3.48-62.6 0 0-.74-2.34q-4.46-5.75-6.65-11.15a.83.81-2.8 0 0-.54-.48q-.39-.11-.94.14a.67.61 67.7 0 1-.86-.41m108.13-52.87.91.11a.67.66 5.5 0 1 .58.7c-.04.72-.53 1.32-.46 2.19q.46 5.22.47 7.46a1.17 1.16-65.7 0 0 .29.77l3.27 3.86a1.87 1.77 77.9 0 0 .8.55c3.05 1.07 4.8-1.89 6.65-2.89a1.06 1.04-46.4 0 1 .99-.03l5.02 2.43a.75.74 35.1 0 0 .85-.14q3.42-3.31 7.44-.44a.9.89 28.2 0 1 .32 1.03l-.69 1.89a1.24 1.19-43.9 0 0-.03.76l.71 2.65a4.26 4.2-52.8 0 1 .14 1.08v116.23a.99.99 0 0 1-1.15.98q-6.11-.98-11.8-.42a1.32 1.3 9.2 0 0-1.08.77q-.37.81-.77 1.1a1.87 1.83-65.4 0 1-.91.35q-3.5.36-4.49 1.35-3.49 3.51-4.53 4.44a1.57 1.57 0 0 0-.5.94q-1.08 7.5 4.56 11.16a1.45 1.43 55.9 0 0 1.06.21l2.32-.45a1.83 1.8 52.9 0 1 1.15.17c2.3 1.18 4.75.7 7.42.64q3.45-.09 5.09-.26a1.57 1.55-74.2 0 0 1.08-.61l.27-.37a.58.57 48.4 0 1 .96.06l.22.37a1.08 1.07-15.7 0 0 .89.5q16.52.39 26.4.06c6.58-.21 10.19.26 17.99.11q1.88-.04 3.59-1a1.14 1.14 0 0 0 .55-.69c.5-1.74.19-3.53 1.17-5.39q.79-1.53 1.17-2.7a1.35 1.33 32.4 0 0-.31-1.33q-1.24-1.3-1.84-2.9a1.72 1.7 2.9 0 0-.86-.94q-1.96-.92-2.34-1.49-3.74-5.65-11.07-4.24-.58.11-2-.68c-2.43-1.34-5.76-1.56-8.95-2.07q-.45-.07-3.63-1.46a.77.75 12 0 1-.46-.69v-35.59a.58.57 5.8 0 1 .69-.56l4.4.93a1.83 1.83 0 0 1 .93.5l4.74 4.74a.54.54 0 0 0 .6.11c3.08-1.4 6.13.66 8.55 2.85a2.32 2.29-18.8 0 0 1.2.58q.81.13 1.87-.09c2.38-.49 5.9.81 8.36 1.76a5.51 5.41-30.6 0 0 1.26.31l11.5 1.4a7.83 7.75 42.4 0 0 2.48-.1q4.9-1.02 10.86-2.28c2.44-.52 5-2 7.25-2.25a1.89 1.82 20.3 0 0 .98-.43c3.1-2.65 7.2-3.25 9.04-5.21q2.8-2.98 4.93-4.77a2.52 2.44 83.1 0 0 .69-.91l1.7-3.9a3.17 3.11 80.5 0 1 .74-1.06l4.06-3.85a.49.43 86.4 0 0 .07-.09q3.91-6.46 5.23-8.02a1.57 1.54-27.6 0 0 .36-1.12q-.07-.89.69-4.63c.38-1.89-.11-3.82.68-5.42 1.07-2.14 1.53-5.38 2.01-6.95a11.76 11.73-38.3 0 0 .5-4.23l-1.08-16.48a5.15 5.12 31.8 0 0-.38-1.6l-6.17-14.63a1.27.78 37.6 0 0-.07-.14l-9.6-15.68a1.29 1.28 56.9 0 1 .36-1.73q1.91-1.34 1.52-3.31a1.2 1.19 13.1 0 0-.44-.7l-3.16-2.34a1.12 1.11 54.6 0 0-.98-.17q-2.33.72-4.21 2.9a1.04 1.04 0 0 1-1.59-.01l-1.94-2.31a1.44 1.37-8.4 0 0-.57-.4l-9.3-3.38a.9.79-14.9 0 1-.22-.11l-3.36-2.2a2.24 2.17-28.7 0 0-1.31-.36l-8.71.36a1.28 1.01-28.6 0 1-.41-.07l-1.32-.48a1.14 1.13-45.4 0 0-.76.01c-2.08.81-4.59.37-6.8 1.04-3.56 1.08-9.45.71-12.07 4.57a1.1 1.1 0 0 1-1.03.48q-3-.32-6.91.69a2.1 2.05-76.2 0 0-1.06.66q-2.95 3.47-6.88 3.28a1.97 1.96-62.2 0 0-1.31.41l-5.01 3.8a1.06 1.05-20.5 0 1-1.69-.77l-.76-11.64a.66.65 8.6 0 0-.42-.56q-2.54-.93-3.49-.56-2.61.99-4.04.81-6.12-.8-11.68.53a.9.9 0 0 1-.85-.24l-.43-.43a1.04 1.03-24.2 0 0-.83-.31l-8 .52a.9.86 52 0 1-.41-.06l-1.16-.42a1.43 1.42 43.7 0 0-1.03.02c-3.3 1.34-5.93.47-9.18 2.96a1.56 1.56 0 0 1-.93.33c-.93.03-1.98-.47-2.77.12q-.44.33-.82 1.48a.52.51-77.9 0 0 .43.67"
        fill="#323538"/>
    <path
        d="M751.3 583.2a1.89 1.87 6.4 0 1-1.57 1.24l-9.23.95a2.85 2.69-38.5 0 1-1.07-.09q-3.24-.92-6.96.21a3.16 3.05-47.7 0 1-1.41.09q-2.07-.34-4.02.21a1.94 1.91-42.5 0 1-1.18-.04l-2.13-.78a1.79 1.78-50 0 0-1.52.14l-.94.53a1.33 1.28 29.4 0 1-.7.18l-17.93-.82a1.14 1.12 32.6 0 0-.53.11l-2.44 1.19a2.51 2.5-38.4 0 1-2.66-.3q-1.73-1.39-4.64-.89c-3.02.51-5.23 3.4-8.54 1.05a1.96 1.93-30.8 0 0-1.38-.34q-4.8.65-5.77 1.05-1.47.61-1.65-1.33a.78.77 77.4 0 0-1.04-.66q-1.86.7-2.86.37c-2.53-.83-4.19-.23-7 .33q-1.28.25-2.08-.57c-.99-1.02-1.92-1.69-3.19-2.12a2.04 2.04 0 0 1-1.21-1.14c-1.31-3.2-.62-6.22-1.41-9.17a1.2 1.19-28.4 0 1 .36-1.2q1.58-1.4 1.49-3.97a2.35 2.33-7.8 0 1 1.79-2.34q2.24-.56 3.4-1.29c2.56-1.61 5.72-1.66 8.18-1.2a.7.7 0 0 0 .28 0l8.58-1.66a1.54 1.24-41.7 0 1 .41-.02l10.44.85a.58.57-87.7 0 0 .62-.58V450.13a.83.82-90 0 0-.82-.83h-26.31a1.2 1.2 0 0 0-.96.48l-.9 1.22a.86.84 15.8 0 1-.62.34l-3.37.22a2.39 2.36-73.6 0 0-1.77.98l-2.51 3.47a1.41 1.37-31.9 0 0-.25 1.01c.12.76.78 1.78.6 2.89q-.55 3.22-.08 5.99a2.04 2.01-34.8 0 1-.26 1.39q-2.67 4.49.57 8.6a1.05 1.04-55.6 0 1 .17.93l-1.76 5.9a1.82 1.78-37.1 0 0-.08.53v3.43a1.08 1.07 71.8 0 1-.43.86q-1.72 1.29-2.67 3.62a1.8 1.75-3.7 0 1-.83.92l-5.4 2.81a2.45 2.43-48.5 0 1-1.97.13l-6.33-2.3a1.11 1.09-1.7 0 1-.63-.58q-3.04-6.75-1.98-12.46.58-3.1.76-6.35.72-12.87.72-21.32-.01-2.49-1.77-3.26a1.57 1.5-74.3 0 1-.87-1.64q.65-4.45 2.11-6.11a1.36 1.36 0 0 0 .25-1.35c-1.05-2.91.79-4.51 3.79-4.88q1.62-.19 2.85-1.56a3.47 3.45 19.3 0 1 2.37-1.13q26.6-1.42 45.31-.65 1.77.07 6.29 0 24.42-.38 34.99-.1 1.36.03 3.23.55a1.11.9-32.4 0 0 .25.03l14.21-.69a1.25 1.24 73.4 0 1 1.12.61l1.74 3.02a1.58 1.58 0 0 0 2.12.6c2.4-1.3 8.7-4.28 10.84-2.23q.18.18.7.39a.76.76 0 0 0 .9-.26l.81-1.09a1.26 1.23-72.2 0 1 .95-.5c3.87-.1 9.62 1 9.12 6.29q-.18 1.86.25 4.13a1.82 1.81 57.9 0 1-.33 1.45l-.64.86a.9.9 0 0 0-.09.89c1.41 3.07.7 6.56.99 9.46.6 5.86.12 11.36.15 18.12a.95.87 35.3 0 0 .08.37l.66 1.68a1.39 1.37-42.4 0 1-.06 1.14l-2.06 4.01a.7.61-34.2 0 0-.08.31v3.49a3.83 3.82-27 0 1-.74 2.26l-2.16 2.91a2.01 1.99 61.7 0 0-.39 1.33l.09 1.38a1.1 1.06 54.3 0 1-.07.48q-1.38 3.55-4.32 2.23a.68.64-32.7 0 0-.32-.06l-8.04.37a1.71 1.68 61.3 0 1-1.09-.33l-3.42-2.54a.87.85 18.6 0 1-.35-.69c.03-4.71.58-8.01-2.07-12.12a2.11 2.06-63.9 0 1-.34-1.04q-.06-1.41 1.43-2.65a1.15 1.14-24.5 0 0 .39-1.03q-.85-5.8-.1-14.03a1.17 1.15 20.6 0 0-.49-1.05q-.22-.16-.74-.23a1.11 1.1-89.7 0 1-.95-.97c-.32-2.99.83-7.31-2.19-8.68a1.9 1.86 54.1 0 0-.98-.17c-5.43.43-9.92.91-13.5-.81a1.07 1.05 42.1 0 0-.97.04l-1.72.99a1.77 1.74 32 0 1-1.04.23q-4.5-.41-12.04-.07c-1.06.05-2.09-.48-3.05-.44a1.05 1.04-78.5 0 0-.89.59l-2.24 4.62a.84.69 62.6 0 0-.07.33v105.34a1.15 1.15 0 0 0 1.17 1.15q13.01-.18 26.83-.03.53 0 1.81.58a2.03 2.01 55.7 0 0 .92.18q4.22-.16 7.26 1.87c1.32.89 2.18.47 3.17.9a1 1 0 0 1 .58 1.06q-.35 2.42.86 4.38a3.26 3.25-59.4 0 1 .48 1.87l-.18 4.01a2.43 2.43 0 0 1-.67 1.57q-2.35 2.47-3.42 5.51m413.26-49.8q-.02 2.7 1.25 5.4a2.16 2.11-56.7 0 1 .19.97l-.2 4.41a1.35 1.31-61.2 0 0 .22.8c1.13 1.73 1.74 2.92 2.75 3.95 2.34 2.38 3.32 6.24 5.27 8.2q2.75 2.77 5.01 4.62 1.26 1.02 7.58 4.63 1.62.92 3.16 1.08c1.72.18 2.57 1.2 4.3 1.22 2.11.02 4.41.29 6.38 1.31q.82.42 1.17.46a2.09 2.07-58.1 0 0 .93-.22l3.27-1.67a1.9 1.88-52.4 0 1 1.19-.16l3.29.66a3.43 3.28 46.3 0 0 1.12.05l16.01-1.91a1.78 1.76-35.3 0 1 .97.16l.87.43a1.28 1.28 0 0 0 1.51-.3q2.05-2.32 4.92-2.69a3.34 3.3-66.7 0 0 1.56-.63c1.93-1.46 6.82-5.07 10.36-4.66 1.32.16 1.74-.24 2.41-1.17.7-.98 2.12-1.64 4.26-3a1.57 1.43-61.7 0 1 .57-.2l6.62-.79a1.24 1.22 56.3 0 1 .77.16q1.1.64 2.1 1.98a1.34 1.29-14.2 0 0 .89.51l2.44.3a1.62 1.62 0 0 1 1.3.97l1.42 3.29a.93.92 57.6 0 1-.23 1.05q-1.32 1.17-.76 2.41c1.82 3.96-2.07 4.61-5.05 4.69a1.7 1.69-85.4 0 0-1.63 1.39q-.58 3.09-1.71 3.99a2.29 2.13-73.6 0 1-.27.16l-3.52 1.47a3.05 2.99-79.7 0 0-1.09.77c-1.36 1.5-1.6 3.49-3.98 3.74q-2.9.3-4.1 1.68a1.52 1.49-73.6 0 1-.86.48c-3.45.57-6.61.29-9.49 2.4a1.75 1.55 49.7 0 1-2.16-.31q-.76-.8-2-1.6a.9.9 0 0 0-.99-.01l-6.43 4.15a1.09 1.04-59.1 0 1-.65.18q-13.63-.72-22.75.45-.57.07-1.6.94a.72.72 0 0 1-.87.04q-1.86-1.26-2.76-2.49a1.09 1.08 39.8 0 0-1.85.16l-.62 1.28a1.57 1.57 0 0 1-2.01.77q-4.04-1.65-7.46-2.4a5.43 5.22-25.1 0 1-1.15-.39q-6.77-3.17-12.5-6.55-3.87-2.28-6.37-4.59-2.43-2.25-6.16-4.91c-2.11-1.51-4.21-6.31-6.57-8.71-1.94-1.97-2.01-4.71-3.23-7.3q-4.31-9.14-4.43-19.22a2.1 2.08 29.1 0 0-.32-1.11q-3.2-5.06-.47-9.7a1.84 1.84 0 0 0 .24-1.14l-.45-3.76a1.7 1.67 59.9 0 1 .3-1.16c2.55-3.64 1.95-8.44 4.24-12.53q1.37-2.45 2.62-6.81 1.08-3.79 3.78-5.81c2.01-1.49 2.47-4.26 3.42-6.78a2.5 2.5 0 0 1 1.29-1.39q1.73-.8 4.12-3.11a1.54 1.21-78.3 0 1 .19-.16l9.31-6.27a2.4 2.19-67.6 0 1 .66-.31q1.88-.53 7.3-2.68c3.05-1.21 5.88-3 8.86-3.16 3.27-.17 6.21-1.9 9.46-1.42a1.43 1.4 30.5 0 0 1.06-.26l1.24-.94a2.64 2.64 0 0 1 1.23-.5q5.09-.67 6.25-.46 6.52 1.17 9.42 1.48a1.37 1.33 69.9 0 1 .81.39l2.18 2.18a.78.77-26.2 0 0 .65.22q3.69-.56 5.64.19 6.46 2.49 10.23 5.09 3.84 2.64 6.67 3.75 2.32.9 8.71 6.59 4.34 3.85 6.89 8.87 3.75 7.37 7.46 14.99.4.82 1.83 2.05a1.59 1.57-70 0 1 .55 1.2l-.05 5.49v.03q.78 2.02.36 8.72-.4 6.23-6.07 6.61a4.18 4.1-55.9 0 0-.94.19q-3.63 1.16-6.44.73-.71-.11-2.01-1.52a1.55 1.55 0 0 0-1.13-.49h-3.14a.75.74-80.8 0 0-.71.52q-.16.52-.7.94a1.51 1.5 30.9 0 1-1.17.29c-2.09-.36-4.36-.92-6.39-.61q-1.61.25-5.9.05-3.18-.15-21.72-.33-2.22-.02-7.68.16c-4.52.16-9.86-.2-14.01.26-2.82.32-5.28-.35-8.46-.27q-11.01.31-19.31-.64a.46.46 0 0 0-.51.45m1.41-20.35 2.82 2.08a1.39 1.39 0 0 0 1.49.11q2.1-1.11 3.67.08c1.51 1.14 3.27.42 4.72.15a4.1 3.98 39.5 0 1 .85-.07q23.47.29 49.23.17 1.98-.01 9.31-.7a5.98 5.97-41.3 0 1 1.88.12c1.35.3 2.26.89 3.74.61 4.39-.86 3.99-6.86 2.06-9.54-.91-1.25-3.37-2.2-4.72-4.02q-1.36-1.83-3.45-2.73a3.64 3.56 77 0 1-1.03-.66q-3.64-3.32-4.79-3.93-6.1-3.22-10.94-6.7c-2.04-1.46-3.45-1.49-5.7-.51a2.15 2.07 36.9 0 1-1.22.15q-2.97-.5-5.22.27a1.36 1.36 0 0 1-1.26-.19l-1.3-.96a1.16 1.15 56.4 0 0-.97-.2q-1.96.45-7.37.1-1.49-.09-4.63 2.25a2.02 1.97 21.4 0 1-.85.36q-7.05 1.23-10.83 3.71-4.2 2.75-7.41 4.59a2.01 1.95.9 0 0-.68.64q-1.45 2.26-2.04 5.31a.86.85 5.3 0 1-.84.69h-.98a1.21 1.19-79.8 0 0-1.12.79l-2.64 7.28a.66.65-61.6 0 0 .22.75m-296.04 17.36a.67.61 67.7 0 0 .86.41q.55-.25.94-.14a.83.81-2.8 0 1 .54.48q2.19 5.4 6.65 11.15a3.49 3.48-62.6 0 1 .74 2.34q-.25 5.23 3.12 8.37a2.65 2.57-78.9 0 1 .65 1l1.33 3.79a.96.95-11.6 0 0 .97.63l1.41-.09a.72.71-19.2 0 1 .64.3q.7.97.96 1.73a.94.94 0 0 0 1.59.33q2.19-2.42 3.6-5.79 9.76-23.41 9.78-23.49a1.27 1.25-.2 0 1 .79-.78l1.35-.46a1.86 1.83-1.4 0 0 1.17-1.21q.17-.57 7.99-17.85c1.55-3.43 3.06-7.97 4.66-12.11a1.31 1.3-11 0 1 .34-.5l1.03-.96a1.25 1.25 0 0 0-1.3-2.08q-4.05 1.59-4.65-2.92a.96.95-2.4 0 0-.92-.83l-10.56-.32a.95.76 51.4 0 1-.22-.05q-3.36-1.19-5.01-3.62a1.26 1.25 54.8 0 1 .29-1.7l2.71-2.01a.88.88 0 0 0 .33-.92q-.09-.36-.64-.98a1.12 1.12 0 0 1-.28-.84q.03-.43.56-1.08c.98-1.23 1.14-2.52 1.28-4.29a3 3 0 0 1 .24-.96q.31-.72 2.56-1.79c5.02-2.39 11.17-2.04 15.47-1.76q3.32.21 5.86 0 4.99-.41 5.86-.53a1.03 1.02-24 0 1 .95.36l.63.77a1.04 1.03-23.4 0 0 .92.36c2.85-.34 5.89-3.17 8.5.06a.7.7 0 0 0 .61.27l11.64-.65a1.23 1.19-32.8 0 1 .55.11l3.5 1.7a1.64 1.61 85.3 0 1 .65.56q2.16 3.17 2.14 4.35-.06 4.56.11 6.55a1.2 1.19 63.8 0 1-.3.89q-.58.68-1.97 1.3a.87.87 0 0 0-.3 1.35q1.6 1.93-.61 3.86c-1.89 1.63-3.06 1.56-4.83.52q-.69-.41-.71-.41a1.06 1.06 0 0 0-.94.2q-1.26 1.06-2.91 1.19-6.49.53-8.33.42a.78.77-78 0 0-.78.51l-1.6 4.4a1.76 1.75 82.6 0 1-.65.85l-1.44 1.02a2.67 2.62-9.1 0 0-1.02 1.38c-.69 2.18-1.37 5.39-2.69 8.28q-4.27 9.3-6.4 14.79-2.64 6.78-4.68 10.89c-1.66 3.33-4.48 11.1-7.35 16.43q-1.35 2.49-2.04 5.32a5.49 5.19-26.7 0 1-.36.99l-20.81 43.03a.22.21 61.8 0 0-.03.11q-.15 2.61-.7 3.47-3.21 4.99-5.29 8.92a.67.53 83.7 0 1-.07.11l-2.49 3.17a2.19 2.18-49 0 0 .2 2.93q1.47 1.41 3.52 2.1a1.26 1.25-1 0 1 .77.74c.62 1.57-.11 3.04-.9 4.33-1.16 1.9-5.19 1.49-7.11.8a.93.93 0 0 0-1.24.74q-.5 3.59-4.03 5.34a1.53 1.49 38.4 0 1-1.05.11q-1.79-.47-3.58-1.65a2.06 1.79-56.6 0 0-2.65.74q-1.7 2.59-4.73 1.83a1.62 1.59-52.5 0 0-1.2.17c-.96.57-1.34 1.81-2.56 1.93q-.7.07-2.09-.76a.55.55 0 0 0-.77.2q-.66 1.18-1.51 1.18a.4.34 49.7 0 1-.12-.02l-1.39-.68a.62.62 0 0 0-.85.35l-.44 1.19a2.06 2.05-82.3 0 1-1.78 1.36q-7.26.56-9.99-2.67a1.46 1.45-41.3 0 0-2.11-.13q-1.56 1.47-2.42.72-3.53-3.14-7.24-6.04a1.8 1.8 0 0 1-.63-1q-.44-1.96-1.63-4.52-.42-.88-.13-5.65a1.7 1.68 69.5 0 1 .49-1.09c2-1.98 2.65-4.39 4.08-8.28a4.81 4.44-18.3 0 1 .72-1.3c2.92-3.67 4.28-5.88 8.96-6.04a2.96 2.95 28.4 0 0 1.48-.44c3.53-2.14 5.99-1.05 9.42.22a1.29 1.28 88.3 0 1 .74.7l2.25 5.22a.91.91 0 0 0 1.2.48l3.82-1.64a2.35 2.35 0 0 1 2.72.63l2.08 2.43a.91.91 0 0 0 1.4-.02l4.24-5.2a.96.72-18.6 0 0 .13-.19c4.89-8.88 8.91-15.79 11.17-24.21a1.42 1.4 38.8 0 0-.12-1.02q-2.28-4.13-6.53-5.23a2.86 2.84 85.6 0 1-1.91-1.65l-5.8-13.72a2.71 2.54 16.5 0 0-.3-.51l-1.83-2.3a3.85 3.79 18 0 1-.68-1.31c-.99-3.35-1.31-4.98-3.71-7.37a1.17 1.13-67 0 1-.34-.89l.08-1.75a1.65 1.64-60.2 0 0-.25-.94c-.91-1.46-2.34-3.05-3.24-5.06q-4.27-9.5-4.87-10.72-.98-2.02-3.06-2.06a.97.97 0 0 1-.96-1.01l.2-4.21a1.21 1.17 28.4 0 0-.23-.73q-1.06-1.39-1.71-4.19a4.09 4.04 22.4 0 0-.54-1.27l-2.97-4.62a6.72 6.64 19.4 0 1-.69-1.42q-2.74-7.93-8.09-16.03a2.04 2-14.9 0 0-1.6-.91l-10.82-.49a2.5 2.47-20.2 0 1-1.67-.76q-1.62-1.71-3.72-.62a1.93 1.92 45.2 0 1-1.8-.01q-2.37-1.24-6.96-.37-1.46.27-2.83-.84c-1.47-1.2-.95-3.3-3.42-4.42a2.27 2.26-68.6 0 1-1.21-2.79q.98-2.86 1.43-5.45a2.67 2.65-4.9 0 1 1.75-2.07l8.53-3.01a3.37 3.05 29.4 0 1 .62-.14l4.24-.43a2.51 2.47-66.8 0 0 1.34-.55l1.47-1.19a1.79 1.75 23.6 0 1 1.01-.38q.78-.04 5.93.48 1.82.18 3.24-.01 2.98-.39 8.21-1.79 3.19-.86 5.59.55 2.15 1.27 3.29 1.35 3.75.25 6.28-.43a1.09 1.09 0 0 1 1.23.51l.28.48a1.45 1.43-17 0 0 1.36.71q1.32-.11 2.47.6a1 .99-47.6 0 0 1.13-.06q.12-.09.27-.23a1.21 1.2 26.9 0 1 .97-.31l3.31.4a.89.88-1.8 0 1 .76.71q.34 1.87 1.54 2.94a1.33 1.31 23.1 0 1 .42 1.03l-.11 2.42a2.81 2.79-63 0 0 .6 1.87l2.22 2.82a1.1 1.08-55.9 0 1 .18.98q-.7 2.36-1.66 3.6a1.24 1.21-76.3 0 1-.72.45l-8.64 1.67a1.27 1.27 0 0 0-.93 1.75l1.19 2.75a1.04 1.03 58.7 0 1-.29 1.2c-2.27 1.88-2.18 5.09-.73 7.34q1 1.55 1.47 2.64a2.1 2.09 83.1 0 0 1.53 1.21q.45.08.75.28a2.45 2.39-83.8 0 1 .73.93l7.6 17.65a3.15 2.74 31.5 0 1 .18.57q.24 1.25.71 2.57m107.7-53.54q.38-1.15.82-1.48c.79-.59 1.84-.09 2.77-.12a1.56 1.56 0 0 0 .93-.33c3.25-2.49 5.88-1.62 9.18-2.96a1.43 1.42 43.7 0 1 1.03-.02l1.16.42a.9.86 52 0 0 .41.06l8-.52a1.04 1.03-24.2 0 1 .83.31l.43.43a.9.9 0 0 0 .85.24q5.56-1.33 11.68-.53 1.43.18 4.04-.81.95-.37 3.49.56a.66.65 8.6 0 1 .42.56l.76 11.64a1.06 1.05-20.5 0 0 1.69.77l5.01-3.8a1.97 1.96-62.2 0 1 1.31-.41q3.93.19 6.88-3.28a2.1 2.05-76.2 0 1 1.06-.66q3.91-1.01 6.91-.69a1.1 1.1 0 0 0 1.03-.48c2.62-3.86 8.51-3.49 12.07-4.57 2.21-.67 4.72-.23 6.8-1.04a1.14 1.13-45.4 0 1 .76-.01l1.32.48a1.28 1.01-28.6 0 0 .41.07l8.71-.36a2.24 2.17-28.7 0 1 1.31.36l3.36 2.2a.9.79-14.9 0 0 .22.11l9.3 3.38a1.44 1.37-8.4 0 1 .57.4l1.94 2.31a1.04 1.04 0 0 0 1.59.01q1.88-2.18 4.21-2.9a1.12 1.11 54.6 0 1 .98.17l3.16 2.34a1.2 1.19 13.1 0 1 .44.7q.39 1.97-1.52 3.31a1.29 1.28 56.9 0 0-.36 1.73l9.6 15.68a1.27.78 37.6 0 1 .07.14l6.17 14.63a5.15 5.12 31.8 0 1 .38 1.6l1.08 16.48a11.76 11.73-38.3 0 1-.5 4.23c-.48 1.57-.94 4.81-2.01 6.95-.79 1.6-.3 3.53-.68 5.42q-.76 3.74-.69 4.63a1.57 1.54-27.6 0 1-.36 1.12q-1.32 1.56-5.23 8.02a.49.43 86.4 0 1-.07.09l-4.06 3.85a3.17 3.11 80.5 0 0-.74 1.06l-1.7 3.9a2.52 2.44 83.1 0 1-.69.91q-2.13 1.79-4.93 4.77c-1.84 1.96-5.94 2.56-9.04 5.21a1.89 1.82 20.3 0 1-.98.43c-2.25.25-4.81 1.73-7.25 2.25q-5.96 1.26-10.86 2.28a7.83 7.75 42.4 0 1-2.48.1l-11.5-1.4a5.51 5.41-30.6 0 1-1.26-.31c-2.46-.95-5.98-2.25-8.36-1.76q-1.06.22-1.87.09a2.32 2.29-18.8 0 1-1.2-.58c-2.42-2.19-5.47-4.25-8.55-2.85a.54.54 0 0 1-.6-.11l-4.74-4.74a1.83 1.83 0 0 0-.93-.5l-4.4-.93a.58.57 5.8 0 0-.69.56v35.59a.77.75 12 0 0 .46.69q3.18 1.39 3.63 1.46c3.19.51 6.52.73 8.95 2.07q1.42.79 2 .68 7.33-1.41 11.07 4.24.38.57 2.34 1.49a1.72 1.7 2.9 0 1 .86.94q.6 1.6 1.84 2.9a1.35 1.33 32.4 0 1 .31 1.33q-.38 1.17-1.17 2.7c-.98 1.86-.67 3.65-1.17 5.39a1.14 1.14 0 0 1-.55.69q-1.71.96-3.59 1c-7.8.15-11.41-.32-17.99-.11q-9.88.33-26.4-.06a1.08 1.07-15.7 0 1-.89-.5l-.22-.37a.58.57 48.4 0 0-.96-.06l-.27.37a1.57 1.55-74.2 0 1-1.08.61q-1.64.17-5.09.26c-2.67.06-5.12.54-7.42-.64a1.83 1.8 52.9 0 0-1.15-.17l-2.32.45a1.45 1.43 55.9 0 1-1.06-.21q-5.64-3.66-4.56-11.16a1.57 1.57 0 0 1 .5-.94q1.04-.93 4.53-4.44.99-.99 4.49-1.35a1.87 1.83-65.4 0 0 .91-.35q.4-.29.77-1.1a1.32 1.3 9.2 0 1 1.08-.77q5.69-.56 11.8.42a.99.99 0 0 0 1.15-.98V499.52a4.26 4.2-52.8 0 0-.14-1.08l-.71-2.65a1.24 1.19-43.9 0 1 .03-.76l.69-1.89a.9.89 28.2 0 0-.32-1.03q-4.02-2.87-7.44.44a.75.74 35.1 0 1-.85.14l-5.02-2.43a1.06 1.04-46.4 0 0-.99.03c-1.85 1-3.6 3.96-6.65 2.89a1.87 1.77 77.9 0 1-.8-.55l-3.27-3.86a1.17 1.16-65.7 0 1-.29-.77q-.01-2.24-.47-7.46c-.07-.87.42-1.47.46-2.19a.67.66 5.5 0 0-.58-.7l-.91-.11a.52.51-77.9 0 1-.43-.67m121.82 40.25q-1.23-2.76-2.14-6.17-.45-1.71-3.23-6.19a4.92 4.87 23.9 0 1-.63-1.61l-.44-2.27a.95.94-11.8 0 0-1.14-.74c-2.13.48-4.54-2.74-5.86-4.07a1.97 1.96 62.1 0 0-1.77-.55l-.92.18a2.68 2.64 54.4 0 1-1.85-.32q-7.32-4.33-15.97-5.32-3.67-.42-6.15 1.71a1.1 1.09-48.5 0 1-1.32.08c-6.2-4.18-6.02 2.29-11.18 1.28a2.17 2.16 26 0 0-2.05.7q-4.1 4.64-8.24 6.93a8.03 7.96-86 0 0-2.6 2.28l-5.89 7.95a3.85 3.59-67.5 0 0-.29.46c-1.77 3.48-2.57 8.3-4.24 12.61a2.09 1.99-35.6 0 0-.14.74v25.16a1.78 1.78 0 0 0 2.67 1.54l1.98-1.15a1.88 1.86 59.9 0 1 2.55.69l5.57 9.64a1.24 1.24 0 0 0 .96.62q3.91.39 6.37 3.02 1.5 1.6 2.19 1.86a2.87 2.8 52.6 0 0 1.17.17q3.15-.23 5.17 1.97a2.83 2.82 71.3 0 0 1.83.91q6.34.57 13.76.47c3.8-.05 7.13-1.14 10.1-2.75q3.17-1.72 3.77-1.93a1.48 1.45-42.8 0 1 1.06.03c2.27.96 3.33-.68 4.75-2.1q5.67-5.71 6.55-7.14 1.35-2.18 5.92-15.87a3.2 2.99-19.9 0 1 .44-.86q2.3-3.23 2.27-8.09-.06-7.47-1.25-12.21a.84.83 11.8 0 0-.31-.47l-1.25-.93a.73.67-87.6 0 1-.22-.26"
        fill="#f6f7f6"/>
    <path
        d="M1165.97 513.05a.66.65-61.6 0 1-.22-.75l2.64-7.28a1.21 1.19-79.8 0 1 1.12-.79h.98a.86.85 5.3 0 0 .84-.69q.59-3.05 2.04-5.31a2.01 1.95.9 0 1 .68-.64q3.21-1.84 7.41-4.59 3.78-2.48 10.83-3.71a2.02 1.97 21.4 0 0 .85-.36q3.14-2.34 4.63-2.25 5.41.35 7.37-.1a1.16 1.15 56.4 0 1 .97.2l1.3.96a1.36 1.36 0 0 0 1.26.19q2.25-.77 5.22-.27a2.15 2.07 36.9 0 0 1.22-.15c2.25-.98 3.66-.95 5.7.51q4.84 3.48 10.94 6.7 1.15.61 4.79 3.93a3.64 3.56 77 0 0 1.03.66q2.09.9 3.45 2.73c1.35 1.82 3.81 2.77 4.72 4.02 1.93 2.68 2.33 8.68-2.06 9.54-1.48.28-2.39-.31-3.74-.61a5.98 5.97-41.3 0 0-1.88-.12q-7.33.69-9.31.7-25.76.12-49.23-.17a4.1 3.98 39.5 0 0-.85.07c-1.45.27-3.21.99-4.72-.15q-1.57-1.19-3.67-.08a1.39 1.39 0 0 1-1.49-.11zm-66.3 4.33 1.25.93a.84.83 11.8 0 1 .31.47q1.19 4.74 1.25 12.21.03 4.86-2.27 8.09a3.2 2.99-19.9 0 0-.44.86q-4.57 13.69-5.92 15.87-.88 1.43-6.55 7.14c-1.42 1.42-2.48 3.06-4.75 2.1a1.48 1.45-42.8 0 0-1.06-.03q-.6.21-3.77 1.93c-2.97 1.61-6.3 2.7-10.1 2.75q-7.42.1-13.76-.47a2.83 2.82 71.3 0 1-1.83-.91q-2.02-2.2-5.17-1.97a2.87 2.8 52.6 0 1-1.17-.17q-.69-.26-2.19-1.86-2.46-2.63-6.37-3.02a1.24 1.24 0 0 1-.96-.62l-5.57-9.64a1.88 1.86 59.9 0 0-2.55-.69l-1.98 1.15a1.78 1.78 0 0 1-2.67-1.54V524.8a2.09 1.99-35.6 0 1 .14-.74c1.67-4.31 2.47-9.13 4.24-12.61a3.85 3.59-67.5 0 1 .29-.46l5.89-7.95a8.03 7.96-86 0 1 2.6-2.28q4.14-2.29 8.24-6.93a2.17 2.16 26 0 1 2.05-.7c5.16 1.01 4.98-5.46 11.18-1.28a1.1 1.09-48.5 0 0 1.32-.08q2.48-2.13 6.15-1.71 8.65.99 15.97 5.32a2.68 2.64 54.4 0 0 1.85.32l.92-.18a1.97 1.96 62.1 0 1 1.77.55c1.32 1.33 3.73 4.55 5.86 4.07a.95.94-11.8 0 1 1.14.74l.44 2.27a4.92 4.87 23.9 0 0 .63 1.61q2.78 4.48 3.23 6.19.91 3.41 2.14 6.17a.73.67-87.6 0 0 .22.26"
        fill="#323538"/>
</svg>
